<svg id="visual" viewBox="0 0 1200 5000" width="1200" height="5000" xmlns="http://www.w3.org/2000/svg" xmlns:xlink="http://www.w3.org/1999/xlink" version="1.1"><path d="M0 601L600 701L1200 601L1200 0L600 0L0 0Z" fill="#f3f4f6"></path><path d="M0 1151L600 1201L1200 1051L1200 599L600 699L0 599Z" fill="#dbe1e9"></path><path d="M0 1501L600 1701L1200 1501L1200 1049L600 1199L0 1149Z" fill="#c1d0db"></path><path d="M0 1751L600 1951L1200 1751L1200 1499L600 1699L0 1499Z" fill="#a5bfcc"></path><path d="M0 2051L600 2201L1200 2001L1200 1749L600 1949L0 1749Z" fill="#88afba"></path><path d="M0 2351L600 2551L1200 2401L1200 1999L600 2199L0 2049Z" fill="#6c9fa7"></path><path d="M0 2701L600 2801L1200 2701L1200 2399L600 2549L0 2349Z" fill="#4f8f92"></path><path d="M0 3901L600 3951L1200 3651L1200 2699L600 2799L0 2699Z" fill="#357f7a"></path><path d="M0 4701L600 4801L1200 4751L1200 3649L600 3949L0 3899Z" fill="#1c6f61"></path><path d="M0 5001L600 5001L1200 5001L1200 4749L600 4799L0 4699Z" fill="#065f46"></path></svg>