<svg xmlns="http://www.w3.org/2000/svg" xmlns:xlink="http://www.w3.org/1999/xlink" xmlns:lucid="lucid" width="1167.5" height="861.5"><g transform="translate(2123.9999474593137 521)" lucid:page-tab-id="0_0"><path d="M-1279.5-355a5 5 0 0 1 5-5h270a5 5 0 0 1 5 5v606a5 5 0 0 1-5 5h-270a5 5 0 0 1-5-5z" fill="#fff"/><path d="M-1279.5-320v-35a5 5 0 0 1 5-5h270a5 5 0 0 1 5 5v35" fill="#ccc"/><path d="M-1279.5-355a5 5 0 0 1 5-5h270a5 5 0 0 1 5 5v606a5 5 0 0 1-5 5h-270a5 5 0 0 1-5-5zM-1279.5-320h280M-1139.5-320v576" stroke="#333" fill="none"/><use xlink:href="#a" transform="matrix(1,0,0,1,-1269.5,-360) translate(0 23.6)"/><use xlink:href="#b" transform="matrix(1,0,0,1,-1274.5,-317.5) translate(0 17.1)"/><use xlink:href="#c" transform="matrix(1,0,0,1,-1134.5,-317.5) translate(0 17.1)"/><use xlink:href="#d" transform="matrix(1,0,0,1,-1274.5,-285.5) translate(0 17.1)"/><use xlink:href="#e" transform="matrix(1,0,0,1,-1134.5,-285.5) translate(0 17.1)"/><use xlink:href="#f" transform="matrix(1,0,0,1,-1274.5,-253.5) translate(0 17.1)"/><use xlink:href="#g" transform="matrix(1,0,0,1,-1134.5,-253.5) translate(0 17.1)"/><use xlink:href="#h" transform="matrix(1,0,0,1,-1274.5,-221.5) translate(0 17.1)"/><use xlink:href="#g" transform="matrix(1,0,0,1,-1134.5,-221.5) translate(0 17.1)"/><use xlink:href="#i" transform="matrix(1,0,0,1,-1274.5,-189.5) translate(0 17.1)"/><use xlink:href="#g" transform="matrix(1,0,0,1,-1134.5,-189.5) translate(0 17.1)"/><use xlink:href="#j" transform="matrix(1,0,0,1,-1274.5,-157.5) translate(0 17.1)"/><use xlink:href="#g" transform="matrix(1,0,0,1,-1134.5,-157.5) translate(0 17.1)"/><use xlink:href="#k" transform="matrix(1,0,0,1,-1274.5,-125.5) translate(0 17.1)"/><use xlink:href="#l" transform="matrix(1,0,0,1,-1134.5,-125.5) translate(0 17.1)"/><use xlink:href="#m" transform="matrix(1,0,0,1,-1274.5,-93.5) translate(0 17.1)"/><use xlink:href="#c" transform="matrix(1,0,0,1,-1134.5,-93.5) translate(0 17.1)"/><use xlink:href="#n" transform="matrix(1,0,0,1,-1274.5,-61.5) translate(0 17.1)"/><use xlink:href="#c" transform="matrix(1,0,0,1,-1134.5,-61.5) translate(0 17.1)"/><use xlink:href="#o" transform="matrix(1,0,0,1,-1274.5,-29.5) translate(0 17.1)"/><use xlink:href="#c" transform="matrix(1,0,0,1,-1134.5,-29.5) translate(0 17.1)"/><use xlink:href="#p" transform="matrix(1,0,0,1,-1274.5,2.5) translate(0 17.1)"/><use xlink:href="#c" transform="matrix(1,0,0,1,-1134.5,2.5) translate(0 17.1)"/><use xlink:href="#q" transform="matrix(1,0,0,1,-1274.5,34.5) translate(0 17.1)"/><use xlink:href="#c" transform="matrix(1,0,0,1,-1134.5,34.5) translate(0 17.1)"/><use xlink:href="#r" transform="matrix(1,0,0,1,-1274.5,66.5) translate(0 17.1)"/><use xlink:href="#c" transform="matrix(1,0,0,1,-1134.5,66.5) translate(0 17.1)"/><use xlink:href="#s" transform="matrix(1,0,0,1,-1274.5,98.5) translate(0 17.1)"/><use xlink:href="#c" transform="matrix(1,0,0,1,-1134.5,98.5) translate(0 17.1)"/><use xlink:href="#t" transform="matrix(1,0,0,1,-1274.5,130.5) translate(0 17.1)"/><use xlink:href="#u" transform="matrix(1,0,0,1,-1134.5,130.5) translate(0 17.1)"/><use xlink:href="#v" transform="matrix(1,0,0,1,-1274.5,162.5) translate(0 17.1)"/><use xlink:href="#u" transform="matrix(1,0,0,1,-1134.5,162.5) translate(0 17.1)"/><use xlink:href="#w" transform="matrix(1,0,0,1,-1274.5,194.5) translate(0 17.1)"/><use xlink:href="#x" transform="matrix(1,0,0,1,-1134.5,194.5) translate(0 17.1)"/><use xlink:href="#y" transform="matrix(1,0,0,1,-1274.5,226.5) translate(0 17.1)"/><use xlink:href="#x" transform="matrix(1,0,0,1,-1134.5,226.5) translate(0 17.1)"/><path d="M-2080.5 125a5 5 0 0 1 5-5h270a5 5 0 0 1 5 5v158a5 5 0 0 1-5 5h-270a5 5 0 0 1-5-5z" fill="#fff"/><path d="M-2080.5 160v-35a5 5 0 0 1 5-5h270a5 5 0 0 1 5 5v35" fill="#ccc"/><path d="M-2080.5 125a5 5 0 0 1 5-5h270a5 5 0 0 1 5 5v158a5 5 0 0 1-5 5h-270a5 5 0 0 1-5-5zM-2080.5 160h280M-1940.5 160v128" stroke="#333" fill="none"/><use xlink:href="#z" transform="matrix(1,0,0,1,-2070.5,120) translate(0 23.6)"/><use xlink:href="#b" transform="matrix(1,0,0,1,-2075.5,162.5) translate(0 17.1)"/><use xlink:href="#c" transform="matrix(1,0,0,1,-1935.5,162.5) translate(0 17.1)"/><use xlink:href="#A" transform="matrix(1,0,0,1,-2075.5,194.5) translate(0 17.1)"/><use xlink:href="#c" transform="matrix(1,0,0,1,-1935.5,194.5) translate(0 17.1)"/><use xlink:href="#B" transform="matrix(1,0,0,1,-2075.5,226.5) translate(0 17.1)"/><use xlink:href="#c" transform="matrix(1,0,0,1,-1935.5,226.5) translate(0 17.1)"/><use xlink:href="#C" transform="matrix(1,0,0,1,-2075.5,258.5) translate(0 17.1)"/><use xlink:href="#c" transform="matrix(1,0,0,1,-1935.5,258.5) translate(0 17.1)"/><path d="M-1680-355a5 5 0 0 1 5-5h270a5 5 0 0 1 5 5V59a5 5 0 0 1-5 5h-270a5 5 0 0 1-5-5z" fill="#fff"/><path d="M-1680-320v-35a5 5 0 0 1 5-5h270a5 5 0 0 1 5 5v35" fill="#ccc"/><path d="M-1680-355a5 5 0 0 1 5-5h270a5 5 0 0 1 5 5V59a5 5 0 0 1-5 5h-270a5 5 0 0 1-5-5zM-1680-320h280M-1541.72-320V64" stroke="#333" fill="none"/><use xlink:href="#D" transform="matrix(1,0,0,1,-1670,-360) translate(0 23.6)"/><use xlink:href="#b" transform="matrix(1,0,0,1,-1675,-317.5) translate(0 17.1)"/><use xlink:href="#c" transform="matrix(1,0,0,1,-1536.7201654241385,-317.5) translate(0 17.1)"/><use xlink:href="#E" transform="matrix(1,0,0,1,-1675,-285.5) translate(0 17.1)"/><use xlink:href="#c" transform="matrix(1,0,0,1,-1536.7201654241385,-285.5) translate(0 17.1)"/><use xlink:href="#F" transform="matrix(1,0,0,1,-1675,-253.5) translate(0 17.1)"/><use xlink:href="#G" transform="matrix(1,0,0,1,-1536.7201654241385,-253.5) translate(0 17.1)"/><use xlink:href="#H" transform="matrix(1,0,0,1,-1675,-221.5) translate(0 17.1)"/><use xlink:href="#I" transform="matrix(1,0,0,1,-1536.7201654241385,-221.5) translate(0 17.1)"/><use xlink:href="#J" transform="matrix(1,0,0,1,-1675,-189.5) translate(0 17.1)"/><use xlink:href="#G" transform="matrix(1,0,0,1,-1536.7201654241385,-189.5) translate(0 17.1)"/><use xlink:href="#K" transform="matrix(1,0,0,1,-1675,-157.5) translate(0 17.1)"/><use xlink:href="#L" transform="matrix(1,0,0,1,-1536.7201654241385,-157.5) translate(0 17.1)"/><use xlink:href="#M" transform="matrix(1,0,0,1,-1675,-125.5) translate(0 17.1)"/><use xlink:href="#L" transform="matrix(1,0,0,1,-1536.7201654241385,-125.5) translate(0 17.1)"/><use xlink:href="#N" transform="matrix(1,0,0,1,-1675,-93.5) translate(0 17.1)"/><use xlink:href="#L" transform="matrix(1,0,0,1,-1536.7201654241385,-93.5) translate(0 17.1)"/><use xlink:href="#O" transform="matrix(1,0,0,1,-1675,-61.5) translate(0 17.1)"/><use xlink:href="#c" transform="matrix(1,0,0,1,-1536.7201654241385,-61.5) translate(0 17.1)"/><use xlink:href="#P" transform="matrix(1,0,0,1,-1675,-29.5) translate(0 17.1)"/><use xlink:href="#Q" transform="matrix(1,0,0,1,-1536.7201654241385,-29.5) translate(0 17.1)"/><use xlink:href="#R" transform="matrix(1,0,0,1,-1675,2.5) translate(0 17.1)"/><use xlink:href="#Q" transform="matrix(1,0,0,1,-1536.7201654241385,2.5) translate(0 17.1)"/><use xlink:href="#S" transform="matrix(1,0,0,1,-1675,34.5) translate(0 17.1)"/><use xlink:href="#T" transform="matrix(1,0,0,1,-1536.7201654241385,34.5) translate(0 17.1)"/><path d="M-1960-492a8 8 0 0 1 8-8h836.75a8 8 0 0 1 8 8v25.15a8 8 0 0 1-8 8H-1952a8 8 0 0 1-8-8z" stroke="#000" stroke-opacity="0" stroke-width="2" fill="#fff" fill-opacity="0"/><use xlink:href="#U" transform="matrix(1,0,0,1,-1956,-496) translate(258.0606172839506 25.782777777777778)"/><path d="M-1805.4-460.2h543.74M-1805.36-460.2h-1.03M-1261.7-460.2h1.04" stroke="#a9afb8" stroke-width="2" fill="none"/><path d="M-1681 125a5 5 0 0 1 5-5h270a5 5 0 0 1 5 5v190a5 5 0 0 1-5 5h-270a5 5 0 0 1-5-5z" fill="#fff"/><path d="M-1681 160v-35a5 5 0 0 1 5-5h270a5 5 0 0 1 5 5v35" fill="#ccc"/><path d="M-1681 125a5 5 0 0 1 5-5h270a5 5 0 0 1 5 5v190a5 5 0 0 1-5 5h-270a5 5 0 0 1-5-5zM-1681 160h280M-1541 160v160" stroke="#333" fill="none"/><use xlink:href="#V" transform="matrix(1,0,0,1,-1671,120) translate(0 23.6)"/><use xlink:href="#b" transform="matrix(1,0,0,1,-1676,162.5) translate(0 17.1)"/><use xlink:href="#c" transform="matrix(1,0,0,1,-1536,162.5) translate(0 17.1)"/><use xlink:href="#W" transform="matrix(1,0,0,1,-1676,194.5) translate(0 17.1)"/><use xlink:href="#l" transform="matrix(1,0,0,1,-1536,194.5) translate(0 17.1)"/><use xlink:href="#X" transform="matrix(1,0,0,1,-1676,226.5) translate(0 17.1)"/><use xlink:href="#Y" transform="matrix(1,0,0,1,-1536,226.5) translate(0 17.1)"/><use xlink:href="#Z" transform="matrix(1,0,0,1,-1676,258.5) translate(0 17.1)"/><use xlink:href="#u" transform="matrix(1,0,0,1,-1536,258.5) translate(0 17.1)"/><use xlink:href="#aa" transform="matrix(1,0,0,1,-1676,290.5) translate(0 17.1)"/><use xlink:href="#Y" transform="matrix(1,0,0,1,-1536,290.5) translate(0 17.1)"/><path d="M-2080.5-355a5 5 0 0 1 5-5h270a5 5 0 0 1 5 5v94a5 5 0 0 1-5 5h-270a5 5 0 0 1-5-5z" fill="#fff"/><path d="M-2080.5-320v-35a5 5 0 0 1 5-5h270a5 5 0 0 1 5 5v35" fill="#ccc"/><path d="M-2080.5-355a5 5 0 0 1 5-5h270a5 5 0 0 1 5 5v94a5 5 0 0 1-5 5h-270a5 5 0 0 1-5-5zM-2080.5-320h280M-1940.5-320v64" stroke="#333" fill="none"/><use xlink:href="#ab" transform="matrix(1,0,0,1,-2070.5,-360) translate(0 23.6)"/><use xlink:href="#b" transform="matrix(1,0,0,1,-2075.5,-317.5) translate(0 17.1)"/><use xlink:href="#c" transform="matrix(1,0,0,1,-1935.5,-317.5) translate(0 17.1)"/><use xlink:href="#O" transform="matrix(1,0,0,1,-2075.5,-285.5) translate(0 17.1)"/><use xlink:href="#l" transform="matrix(1,0,0,1,-1935.5,-285.5) translate(0 17.1)"/><path d="M-1780-304h33.75a6 6 0 0 1 6 6v244.36a6 6 0 0 0 6 6h33.75" stroke="#5e5e5e" stroke-width="2" fill="none"/><path d="M-1780-294v-20M-1800-304h20M-1700.5-57.64v20M-1680.5-47.64h-20" stroke="#5e5e5e" stroke-width="2" fill="#fff"/><path d="M-1379.5-304.56h33.75a6 6 0 0 1 6 6V106.6a6 6 0 0 0 6 6h33.75" stroke="#5e5e5e" stroke-width="2" fill="none"/><path d="M-1379.5-294.56v-20M-1399.5-304.56h20M-1300 102.6v20M-1280 112.6h-20" stroke="#5e5e5e" stroke-width="2" fill="#fff"/><path d="M-979.5-304h14a6 6 0 0 1 6 6v620a6 6 0 0 1-6 6H-2115a6 6 0 0 1-6-6V214a6 6 0 0 1 6-6h14" stroke="#5e5e5e" stroke-width="2" fill="none"/><path d="M-979.5-294v-20M-999.5-304h20M-2101 198v20M-2081 208h-20" stroke="#5e5e5e" stroke-width="2" fill="#fff"/><path d="M-1701.5 175.84h-33.25a6 6 0 0 0-6 6v52.3a6 6 0 0 1-6 6H-1780" stroke="#5e5e5e" stroke-width="2" fill="none"/><path d="M-1701.5 165.84v20M-1681.5 175.84h-20M-1780 250.13v-20M-1800 240.13h20" stroke="#5e5e5e" stroke-width="2" fill="#fff"/><path d="M-2080.5-195a5 5 0 0 1 5-5h270a5 5 0 0 1 5 5v126a5 5 0 0 1-5 5h-270a5 5 0 0 1-5-5z" fill="#fff"/><path d="M-2080.5-160v-35a5 5 0 0 1 5-5h270a5 5 0 0 1 5 5v35" fill="#ccc"/><path d="M-2080.5-195a5 5 0 0 1 5-5h270a5 5 0 0 1 5 5v126a5 5 0 0 1-5 5h-270a5 5 0 0 1-5-5zM-2080.5-160h280M-1940.5-160v96" stroke="#333" fill="none"/><use xlink:href="#ac" transform="matrix(1,0,0,1,-2070.5,-200) translate(0 23.6)"/><use xlink:href="#ad" transform="matrix(1,0,0,1,-2075.5,-157.5) translate(0 17.1)"/><use xlink:href="#c" transform="matrix(1,0,0,1,-1935.5,-157.5) translate(0 17.1)"/><use xlink:href="#ae" transform="matrix(1,0,0,1,-2075.5,-125.5) translate(0 17.1)"/><use xlink:href="#I" transform="matrix(1,0,0,1,-1935.5,-125.5) translate(0 17.1)"/><use xlink:href="#af" transform="matrix(1,0,0,1,-2075.5,-93.5) translate(0 17.1)"/><use xlink:href="#ag" transform="matrix(1,0,0,1,-1935.5,-93.5) translate(0 17.1)"/><path d="M-1780-111.93h79.5" stroke="#5e5e5e" stroke-width="2" fill="none"/><path d="M-1780-101.93v-20M-1800-111.93h20M-1700.5-121.93v20M-1680.5-111.93h-20" stroke="#5e5e5e" stroke-width="2" fill="#fff"/><defs><path fill="#333" d="M248-111c6-24 9-61-24-58-72 9-57 108-77 169h-31l26-142c3-37-50-30-64-10C52-115 50-51 37 0H6l36-190h30c-1 10-6 24-4 32 13-43 101-52 105 5 13-22 29-41 61-41 90 0 28 129 23 194h-31" id="ah"/><path fill="#333" d="M111-194c62-3 86 47 72 106H45c-7 38 6 69 45 68 27-1 43-14 53-32l24 11C152-15 129 4 87 4 38 3 12-23 12-71c0-70 32-119 99-123zm44 81c14-66-71-72-95-28-4 8-8 17-11 28h106" id="ai"/><path fill="#333" d="M6 0l50-261h32L37 0H6" id="aj"/><path fill="#333" d="M133-28C103 26-5 8 13-77c13-62 24-115 90-117 29-1 46 15 56 35l19-102h32L160 0h-30zM45-64c-2 27 10 43 35 43 54-1 69-50 69-103 0-29-15-46-42-46-53-1-58 58-62 106" id="ak"/><path fill="#333" d="M67 3c-93-2-31-127-26-193h32L48-50c-3 39 53 32 70 12 30-34 30-101 43-152h32L157 0h-30c1-10 6-24 4-33-14 20-29 37-64 36" id="al"/><path fill="#333" d="M67-158c22-48 132-52 116 29L158 0h-32l25-140c3-38-53-32-70-12C52-117 51-52 38 0H6l36-190h30" id="am"/><path fill="#333" d="M103-194c29 0 47 14 56 36 2-11 5-23 8-32h30L160-5C157 61 82 97 21 62 9 55 4 45 1 30l28-7c7 42 83 31 92-3 4-16 9-38 13-55-13 20-29 36-62 36-40 0-60-25-60-64 0-71 23-131 91-131zm4 24c-53 0-58 54-61 104-2 27 10 44 36 44 49 0 65-50 67-102 1-29-15-46-42-46" id="an"/><g id="a"><use transform="matrix(0.05,0,0,0.05,0,0)" xlink:href="#ah"/><use transform="matrix(0.05,0,0,0.05,14.950000000000001,0)" xlink:href="#ai"/><use transform="matrix(0.05,0,0,0.05,24.950000000000003,0)" xlink:href="#aj"/><use transform="matrix(0.05,0,0,0.05,28.900000000000002,0)" xlink:href="#ak"/><use transform="matrix(0.05,0,0,0.05,38.900000000000006,0)" xlink:href="#al"/><use transform="matrix(0.05,0,0,0.05,48.900000000000006,0)" xlink:href="#am"/><use transform="matrix(0.05,0,0,0.05,58.900000000000006,0)" xlink:href="#an"/><use transform="matrix(0.05,0,0,0.05,68.9,0)" xlink:href="#ai"/><use transform="matrix(0.05,0,0,0.05,78.9,0)" xlink:href="#am"/></g><path fill="#333" d="M50-231l6-30h32l-6 30H50zM6 0l37-190h31L37 0H6" id="ao"/><g id="b"><use transform="matrix(0.05,0,0,0.05,0,0)" xlink:href="#ao"/><use transform="matrix(0.05,0,0,0.05,3.95,0)" xlink:href="#ak"/></g><path fill="#333" d="M14 0l48-248h34L48 0H14" id="ap"/><path fill="#333" d="M51-54c-9 22 5 41 31 30L79-1C43 14 10-4 19-52l22-115H19l5-23h22l19-43h21l-9 43h35l-4 23H73" id="aq"/><path fill="#333" d="M66-151c12-25 30-51 66-40l-6 26C45-176 58-65 38 0H6l36-190h30" id="ar"/><g id="c"><use transform="matrix(0.05,0,0,0.05,0,0)" xlink:href="#ap"/><use transform="matrix(0.05,0,0,0.05,5,0)" xlink:href="#am"/><use transform="matrix(0.05,0,0,0.05,15,0)" xlink:href="#aq"/><use transform="matrix(0.05,0,0,0.05,20,0)" xlink:href="#ai"/><use transform="matrix(0.05,0,0,0.05,30,0)" xlink:href="#an"/><use transform="matrix(0.05,0,0,0.05,40,0)" xlink:href="#ai"/><use transform="matrix(0.05,0,0,0.05,50,0)" xlink:href="#ar"/></g><g id="d"><use transform="matrix(0.05,0,0,0.05,0,0)" xlink:href="#ak"/><use transform="matrix(0.05,0,0,0.05,10,0)" xlink:href="#ai"/><use transform="matrix(0.05,0,0,0.05,20,0)" xlink:href="#aj"/><use transform="matrix(0.05,0,0,0.05,23.95,0)" xlink:href="#ai"/><use transform="matrix(0.05,0,0,0.05,33.95,0)" xlink:href="#aq"/><use transform="matrix(0.05,0,0,0.05,38.95,0)" xlink:href="#ai"/><use transform="matrix(0.05,0,0,0.05,48.95,0)" xlink:href="#ak"/></g><path fill="#333" d="M219-77C219 17 104-2 11 0l48-248c73 2 169-15 169 57 0 38-24 54-60 60 29 5 51 21 51 54zm-26-111c0-44-62-31-105-33l-16 79c55 0 121 9 121-46zm-7 110c-1-49-69-36-119-38L50-27c61-1 137 12 136-51" id="as"/><path fill="#333" d="M30-147c31-64 166-65 159 27C183-49 158 1 86 4 9 8 1-88 30-147zM88-20c53 0 68-48 68-100 0-31-11-51-44-50-52 1-68 46-68 97 0 32 13 53 44 53" id="at"/><path fill="#333" d="M165-48c-4 18 1 34 23 27l-3 20c-29 8-62 0-52-35h-2C116-14 99 4 63 4 30 4 8-16 8-49c0-68 71-67 138-67 10-26 0-56-31-54-26 1-42 9-47 31l-32-5c8-67 160-71 144 15-5 28-9 54-15 81zM42-50c3 52 80 24 89-6 7-12 7-24 11-38-47 1-103-4-100 44" id="au"/><g id="e"><use transform="matrix(0.05,0,0,0.05,0,0)" xlink:href="#as"/><use transform="matrix(0.05,0,0,0.05,12,0)" xlink:href="#at"/><use transform="matrix(0.05,0,0,0.05,22,0)" xlink:href="#at"/><use transform="matrix(0.05,0,0,0.05,32,0)" xlink:href="#aj"/><use transform="matrix(0.05,0,0,0.05,35.95,0)" xlink:href="#ai"/><use transform="matrix(0.05,0,0,0.05,45.95,0)" xlink:href="#au"/><use transform="matrix(0.05,0,0,0.05,55.95,0)" xlink:href="#am"/></g><path fill="#333" d="M-28 44V31h207v13H-28" id="av"/><path fill="#333" d="M76-167L44 0H12l33-167H18l4-23h27c3-47 25-81 82-69l-4 24c-35-8-44 15-46 45h37l-5 23H76" id="aw"/><path fill="#333" d="M89 0H52L20-190h33L74-25l89-165h34" id="ax"/><g id="f"><use transform="matrix(0.05,0,0,0.05,0,0)" xlink:href="#ak"/><use transform="matrix(0.05,0,0,0.05,10,0)" xlink:href="#au"/><use transform="matrix(0.05,0,0,0.05,20,0)" xlink:href="#aq"/><use transform="matrix(0.05,0,0,0.05,25,0)" xlink:href="#av"/><use transform="matrix(0.05,0,0,0.05,35,0)" xlink:href="#aw"/><use transform="matrix(0.05,0,0,0.05,40,0)" xlink:href="#al"/><use transform="matrix(0.05,0,0,0.05,50,0)" xlink:href="#am"/><use transform="matrix(0.05,0,0,0.05,60,0)" xlink:href="#ak"/><use transform="matrix(0.05,0,0,0.05,70,0)" xlink:href="#av"/><use transform="matrix(0.05,0,0,0.05,80,0)" xlink:href="#ax"/><use transform="matrix(0.05,0,0,0.05,89,0)" xlink:href="#at"/><use transform="matrix(0.05,0,0,0.05,99,0)" xlink:href="#am"/></g><path fill="#333" d="M248-139C247-14 144 9 11 0l48-248c105-6 190 8 189 109zm-34 0c1-70-52-87-126-82L50-27c98 7 163-21 164-112" id="ay"/><g id="g"><use transform="matrix(0.05,0,0,0.05,0,0)" xlink:href="#ay"/><use transform="matrix(0.05,0,0,0.05,12.950000000000001,0)" xlink:href="#au"/><use transform="matrix(0.05,0,0,0.05,22.950000000000003,0)" xlink:href="#aq"/><use transform="matrix(0.05,0,0,0.05,27.950000000000003,0)" xlink:href="#ai"/></g><path fill="#333" d="M68-162c25-46 127-43 121 31C183-60 169 1 98 4 69 5 53-11 43-31L36 0H5l52-261h31zm88 36c2-27-9-43-34-43-55 0-70 51-70 103 0 29 15 45 43 46 52 0 58-58 61-106" id="az"/><path fill="#333" d="M55-144c13 50 104 24 104 88C159 21 15 23 1-39l26-10c6 40 102 42 102-4-13-50-104-23-104-87 0-71 143-71 148-8l-29 4c-5-35-85-37-89 0" id="aA"/><g id="h"><use transform="matrix(0.05,0,0,0.05,0,0)" xlink:href="#ak"/><use transform="matrix(0.05,0,0,0.05,10,0)" xlink:href="#au"/><use transform="matrix(0.05,0,0,0.05,20,0)" xlink:href="#aq"/><use transform="matrix(0.05,0,0,0.05,25,0)" xlink:href="#av"/><use transform="matrix(0.05,0,0,0.05,35,0)" xlink:href="#aw"/><use transform="matrix(0.05,0,0,0.05,40,0)" xlink:href="#al"/><use transform="matrix(0.05,0,0,0.05,50,0)" xlink:href="#am"/><use transform="matrix(0.05,0,0,0.05,60,0)" xlink:href="#ak"/><use transform="matrix(0.05,0,0,0.05,70,0)" xlink:href="#av"/><use transform="matrix(0.05,0,0,0.05,80,0)" xlink:href="#az"/><use transform="matrix(0.05,0,0,0.05,90,0)" xlink:href="#ao"/><use transform="matrix(0.05,0,0,0.05,93.95,0)" xlink:href="#aA"/></g><g id="i"><use transform="matrix(0.05,0,0,0.05,0,0)" xlink:href="#ak"/><use transform="matrix(0.05,0,0,0.05,10,0)" xlink:href="#au"/><use transform="matrix(0.05,0,0,0.05,20,0)" xlink:href="#aq"/><use transform="matrix(0.05,0,0,0.05,25,0)" xlink:href="#av"/><use transform="matrix(0.05,0,0,0.05,35,0)" xlink:href="#ah"/><use transform="matrix(0.05,0,0,0.05,49.95,0)" xlink:href="#ai"/><use transform="matrix(0.05,0,0,0.05,59.95,0)" xlink:href="#aj"/><use transform="matrix(0.05,0,0,0.05,63.900000000000006,0)" xlink:href="#ak"/></g><g id="j"><use transform="matrix(0.05,0,0,0.05,0,0)" xlink:href="#ak"/><use transform="matrix(0.05,0,0,0.05,10,0)" xlink:href="#au"/><use transform="matrix(0.05,0,0,0.05,20,0)" xlink:href="#aq"/><use transform="matrix(0.05,0,0,0.05,25,0)" xlink:href="#av"/><use transform="matrix(0.05,0,0,0.05,35,0)" xlink:href="#az"/><use transform="matrix(0.05,0,0,0.05,45,0)" xlink:href="#ai"/><use transform="matrix(0.05,0,0,0.05,55,0)" xlink:href="#au"/><use transform="matrix(0.05,0,0,0.05,65,0)" xlink:href="#ar"/></g><g id="k"><use transform="matrix(0.05,0,0,0.05,0,0)" xlink:href="#az"/><use transform="matrix(0.05,0,0,0.05,10,0)" xlink:href="#ai"/><use transform="matrix(0.05,0,0,0.05,20,0)" xlink:href="#au"/><use transform="matrix(0.05,0,0,0.05,30,0)" xlink:href="#ar"/><use transform="matrix(0.05,0,0,0.05,35.95,0)" xlink:href="#az"/><use transform="matrix(0.05,0,0,0.05,45.95,0)" xlink:href="#av"/><use transform="matrix(0.05,0,0,0.05,55.95,0)" xlink:href="#ao"/><use transform="matrix(0.05,0,0,0.05,59.900000000000006,0)" xlink:href="#ak"/></g><path fill="#333" d="M44-68c0 29 11 47 38 47 30 0 42-19 51-41l28 9C148-21 126 4 82 4 31 4 10-29 12-85c3-77 74-140 146-93 12 8 15 23 18 40l-31 5c-1-22-13-36-36-36-52 0-65 49-65 101" id="aB"/><path fill="#333" d="M67-158c15-20 31-36 64-36 94 0 33 127 27 194h-32l25-140c3-38-53-32-70-12C52-117 51-51 37 0H6l51-261h31" id="aC"/><path fill="#333" d="M17-49c1-102 45-165 103-212h30C92-210 49-145 49-46 49 4 63 43 85 75H54C30 43 18 2 17-49" id="aD"/><path fill="#333" d="M149-56L138 0h-32l11-56H2l5-25 144-167h35L154-81h33l-5 25h-33zm-4-147L40-81h82" id="aE"/><path fill="#333" d="M16-82c0-90 25-169 113-169 48 0 68 33 68 82C197-79 170 4 84 4 37 4 16-31 16-82zm30 5c0 32 11 55 40 55 69 0 76-79 80-149 2-32-10-55-39-55-69 0-81 81-81 149" id="aF"/><path fill="#333" d="M98-137C97-35 54 29-4 75h-31C23 23 67-41 67-140c0-50-15-89-37-121h31c24 32 36 73 37 124" id="aG"/><g id="l"><use transform="matrix(0.05,0,0,0.05,0,0)" xlink:href="#ax"/><use transform="matrix(0.05,0,0,0.05,9,0)" xlink:href="#au"/><use transform="matrix(0.05,0,0,0.05,19,0)" xlink:href="#ar"/><use transform="matrix(0.05,0,0,0.05,24.95,0)" xlink:href="#aB"/><use transform="matrix(0.05,0,0,0.05,33.95,0)" xlink:href="#aC"/><use transform="matrix(0.05,0,0,0.05,43.95,0)" xlink:href="#au"/><use transform="matrix(0.05,0,0,0.05,53.95,0)" xlink:href="#ar"/><use transform="matrix(0.05,0,0,0.05,59.900000000000006,0)" xlink:href="#aD"/><use transform="matrix(0.05,0,0,0.05,65.85000000000001,0)" xlink:href="#aE"/><use transform="matrix(0.05,0,0,0.05,75.85000000000001,0)" xlink:href="#aF"/><use transform="matrix(0.05,0,0,0.05,85.85000000000001,0)" xlink:href="#aG"/></g><g id="m"><use transform="matrix(0.05,0,0,0.05,0,0)" xlink:href="#aq"/><use transform="matrix(0.05,0,0,0.05,5,0)" xlink:href="#ao"/><use transform="matrix(0.05,0,0,0.05,8.95,0)" xlink:href="#ai"/><use transform="matrix(0.05,0,0,0.05,18.95,0)" xlink:href="#ar"/><use transform="matrix(0.05,0,0,0.05,24.9,0)" xlink:href="#ai"/></g><g id="n"><use transform="matrix(0.05,0,0,0.05,0,0)" xlink:href="#au"/><use transform="matrix(0.05,0,0,0.05,10,0)" xlink:href="#ar"/><use transform="matrix(0.05,0,0,0.05,15.949999999999998,0)" xlink:href="#aq"/><use transform="matrix(0.05,0,0,0.05,20.95,0)" xlink:href="#av"/><use transform="matrix(0.05,0,0,0.05,30.950000000000003,0)" xlink:href="#ah"/></g><path fill="#333" d="M188 0h-37l-8-164L71 0H34L18-190h31l8 164 75-164h34l8 164 74-164h31" id="aH"/><g id="o"><use transform="matrix(0.05,0,0,0.05,0,0)" xlink:href="#au"/><use transform="matrix(0.05,0,0,0.05,10,0)" xlink:href="#ar"/><use transform="matrix(0.05,0,0,0.05,15.949999999999998,0)" xlink:href="#aq"/><use transform="matrix(0.05,0,0,0.05,20.95,0)" xlink:href="#av"/><use transform="matrix(0.05,0,0,0.05,30.950000000000003,0)" xlink:href="#aH"/></g><g id="p"><use transform="matrix(0.05,0,0,0.05,0,0)" xlink:href="#au"/><use transform="matrix(0.05,0,0,0.05,10,0)" xlink:href="#ar"/><use transform="matrix(0.05,0,0,0.05,15.949999999999998,0)" xlink:href="#aq"/><use transform="matrix(0.05,0,0,0.05,20.95,0)" xlink:href="#av"/><use transform="matrix(0.05,0,0,0.05,30.950000000000003,0)" xlink:href="#am"/></g><g id="q"><use transform="matrix(0.05,0,0,0.05,0,0)" xlink:href="#au"/><use transform="matrix(0.05,0,0,0.05,10,0)" xlink:href="#ar"/><use transform="matrix(0.05,0,0,0.05,15.949999999999998,0)" xlink:href="#aq"/><use transform="matrix(0.05,0,0,0.05,20.95,0)" xlink:href="#av"/><use transform="matrix(0.05,0,0,0.05,30.950000000000003,0)" xlink:href="#at"/></g><g id="r"><use transform="matrix(0.05,0,0,0.05,0,0)" xlink:href="#au"/><use transform="matrix(0.05,0,0,0.05,10,0)" xlink:href="#ar"/><use transform="matrix(0.05,0,0,0.05,15.949999999999998,0)" xlink:href="#aq"/><use transform="matrix(0.05,0,0,0.05,20.95,0)" xlink:href="#av"/><use transform="matrix(0.05,0,0,0.05,30.950000000000003,0)" xlink:href="#aw"/></g><path fill="#333" d="M-8 0l5-24 140-142H31l5-24h145l-5 24L36-24h119l-5 24H-8" id="aI"/><g id="s"><use transform="matrix(0.05,0,0,0.05,0,0)" xlink:href="#aw"/><use transform="matrix(0.05,0,0,0.05,5,0)" xlink:href="#at"/><use transform="matrix(0.05,0,0,0.05,15,0)" xlink:href="#av"/><use transform="matrix(0.05,0,0,0.05,25,0)" xlink:href="#aI"/><use transform="matrix(0.05,0,0,0.05,34,0)" xlink:href="#al"/><use transform="matrix(0.05,0,0,0.05,44,0)" xlink:href="#ar"/><use transform="matrix(0.05,0,0,0.05,49.95,0)" xlink:href="#at"/><use transform="matrix(0.05,0,0,0.05,59.95,0)" xlink:href="#ak"/><use transform="matrix(0.05,0,0,0.05,69.95,0)" xlink:href="#am"/><use transform="matrix(0.05,0,0,0.05,79.95,0)" xlink:href="#al"/><use transform="matrix(0.05,0,0,0.05,89.95,0)" xlink:href="#am"/><use transform="matrix(0.05,0,0,0.05,99.95,0)" xlink:href="#an"/></g><path fill="#333" d="M133-28C103 26-5 8 13-77c13-62 24-115 90-117 29-1 46 15 56 35 2-12 6-24 8-34h31L144 75h-31zM45-64c-2 27 10 43 35 43 54-1 69-50 69-103 0-29-15-46-42-46-53-1-58 58-62 106" id="aJ"/><g id="t"><use transform="matrix(0.05,0,0,0.05,0,0)" xlink:href="#aw"/><use transform="matrix(0.05,0,0,0.05,5,0)" xlink:href="#at"/><use transform="matrix(0.05,0,0,0.05,15,0)" xlink:href="#av"/><use transform="matrix(0.05,0,0,0.05,25,0)" xlink:href="#aJ"/><use transform="matrix(0.05,0,0,0.05,35,0)" xlink:href="#al"/><use transform="matrix(0.05,0,0,0.05,45,0)" xlink:href="#ai"/><use transform="matrix(0.05,0,0,0.05,55,0)" xlink:href="#aj"/><use transform="matrix(0.05,0,0,0.05,58.95,0)" xlink:href="#aj"/><use transform="matrix(0.05,0,0,0.05,62.900000000000006,0)" xlink:href="#ai"/></g><path fill="#333" d="M9 0l6-27h63l36-188-63 39 6-31 66-41h29L110-27h60l-5 27H9" id="aK"/><g id="u"><use transform="matrix(0.05,0,0,0.05,0,0)" xlink:href="#ax"/><use transform="matrix(0.05,0,0,0.05,9,0)" xlink:href="#au"/><use transform="matrix(0.05,0,0,0.05,19,0)" xlink:href="#ar"/><use transform="matrix(0.05,0,0,0.05,24.95,0)" xlink:href="#aB"/><use transform="matrix(0.05,0,0,0.05,33.95,0)" xlink:href="#aC"/><use transform="matrix(0.05,0,0,0.05,43.95,0)" xlink:href="#au"/><use transform="matrix(0.05,0,0,0.05,53.95,0)" xlink:href="#ar"/><use transform="matrix(0.05,0,0,0.05,59.900000000000006,0)" xlink:href="#aD"/><use transform="matrix(0.05,0,0,0.05,65.85000000000001,0)" xlink:href="#aK"/><use transform="matrix(0.05,0,0,0.05,75.85000000000001,0)" xlink:href="#aG"/></g><g id="v"><use transform="matrix(0.05,0,0,0.05,0,0)" xlink:href="#aw"/><use transform="matrix(0.05,0,0,0.05,5,0)" xlink:href="#at"/><use transform="matrix(0.05,0,0,0.05,15,0)" xlink:href="#av"/><use transform="matrix(0.05,0,0,0.05,25,0)" xlink:href="#az"/><use transform="matrix(0.05,0,0,0.05,35,0)" xlink:href="#ai"/><use transform="matrix(0.05,0,0,0.05,45,0)" xlink:href="#aj"/><use transform="matrix(0.05,0,0,0.05,48.95,0)" xlink:href="#ai"/><use transform="matrix(0.05,0,0,0.05,58.95,0)" xlink:href="#an"/></g><g id="w"><use transform="matrix(0.05,0,0,0.05,0,0)" xlink:href="#au"/><use transform="matrix(0.05,0,0,0.05,10,0)" xlink:href="#am"/><use transform="matrix(0.05,0,0,0.05,20,0)" xlink:href="#ah"/><use transform="matrix(0.05,0,0,0.05,34.95,0)" xlink:href="#av"/><use transform="matrix(0.05,0,0,0.05,44.95,0)" xlink:href="#ah"/><use transform="matrix(0.05,0,0,0.05,59.900000000000006,0)" xlink:href="#ai"/><use transform="matrix(0.05,0,0,0.05,69.9,0)" xlink:href="#aj"/><use transform="matrix(0.05,0,0,0.05,73.85000000000001,0)" xlink:href="#ak"/><use transform="matrix(0.05,0,0,0.05,83.85000000000001,0)" xlink:href="#ai"/><use transform="matrix(0.05,0,0,0.05,93.85000000000001,0)" xlink:href="#ar"/></g><path fill="#333" d="M151-85c6-55-69-56-94-29H26l34-134h141l-5 27H84l-20 79c41-34 127-11 121 53C199 13 30 38 8-54l29-8C52 0 159-13 151-85" id="aL"/><g id="x"><use transform="matrix(0.05,0,0,0.05,0,0)" xlink:href="#ax"/><use transform="matrix(0.05,0,0,0.05,9,0)" xlink:href="#au"/><use transform="matrix(0.05,0,0,0.05,19,0)" xlink:href="#ar"/><use transform="matrix(0.05,0,0,0.05,24.95,0)" xlink:href="#aB"/><use transform="matrix(0.05,0,0,0.05,33.95,0)" xlink:href="#aC"/><use transform="matrix(0.05,0,0,0.05,43.95,0)" xlink:href="#au"/><use transform="matrix(0.05,0,0,0.05,53.95,0)" xlink:href="#ar"/><use transform="matrix(0.05,0,0,0.05,59.900000000000006,0)" xlink:href="#aD"/><use transform="matrix(0.05,0,0,0.05,65.85000000000001,0)" xlink:href="#aL"/><use transform="matrix(0.05,0,0,0.05,75.85000000000001,0)" xlink:href="#aF"/><use transform="matrix(0.05,0,0,0.05,85.85000000000001,0)" xlink:href="#aF"/><use transform="matrix(0.05,0,0,0.05,95.85000000000001,0)" xlink:href="#aG"/></g><g id="y"><use transform="matrix(0.05,0,0,0.05,0,0)" xlink:href="#au"/><use transform="matrix(0.05,0,0,0.05,10,0)" xlink:href="#am"/><use transform="matrix(0.05,0,0,0.05,20,0)" xlink:href="#ah"/><use transform="matrix(0.05,0,0,0.05,34.95,0)" xlink:href="#av"/><use transform="matrix(0.05,0,0,0.05,44.95,0)" xlink:href="#az"/><use transform="matrix(0.05,0,0,0.05,54.95,0)" xlink:href="#ai"/><use transform="matrix(0.05,0,0,0.05,64.95,0)" xlink:href="#au"/><use transform="matrix(0.05,0,0,0.05,74.95,0)" xlink:href="#ar"/><use transform="matrix(0.05,0,0,0.05,80.9,0)" xlink:href="#az"/><use transform="matrix(0.05,0,0,0.05,90.9,0)" xlink:href="#ai"/><use transform="matrix(0.05,0,0,0.05,100.9,0)" xlink:href="#ao"/><use transform="matrix(0.05,0,0,0.05,104.85000000000001,0)" xlink:href="#aq"/><use transform="matrix(0.05,0,0,0.05,109.85000000000001,0)" xlink:href="#ai"/><use transform="matrix(0.05,0,0,0.05,119.85000000000001,0)" xlink:href="#ar"/></g><g id="z"><use transform="matrix(0.05,0,0,0.05,0,0)" xlink:href="#ah"/><use transform="matrix(0.05,0,0,0.05,14.950000000000001,0)" xlink:href="#ai"/><use transform="matrix(0.05,0,0,0.05,24.950000000000003,0)" xlink:href="#aj"/><use transform="matrix(0.05,0,0,0.05,28.900000000000002,0)" xlink:href="#ak"/><use transform="matrix(0.05,0,0,0.05,38.900000000000006,0)" xlink:href="#al"/><use transform="matrix(0.05,0,0,0.05,48.900000000000006,0)" xlink:href="#aA"/><use transform="matrix(0.05,0,0,0.05,57.900000000000006,0)" xlink:href="#ai"/><use transform="matrix(0.05,0,0,0.05,67.9,0)" xlink:href="#ar"/></g><g id="A"><use transform="matrix(0.05,0,0,0.05,0,0)" xlink:href="#ao"/><use transform="matrix(0.05,0,0,0.05,3.95,0)" xlink:href="#ak"/><use transform="matrix(0.05,0,0,0.05,13.949999999999998,0)" xlink:href="#av"/><use transform="matrix(0.05,0,0,0.05,23.95,0)" xlink:href="#ah"/><use transform="matrix(0.05,0,0,0.05,38.9,0)" xlink:href="#ai"/><use transform="matrix(0.05,0,0,0.05,48.9,0)" xlink:href="#aj"/><use transform="matrix(0.05,0,0,0.05,52.85,0)" xlink:href="#ak"/><use transform="matrix(0.05,0,0,0.05,62.85,0)" xlink:href="#al"/><use transform="matrix(0.05,0,0,0.05,72.85,0)" xlink:href="#am"/><use transform="matrix(0.05,0,0,0.05,82.85,0)" xlink:href="#an"/></g><g id="B"><use transform="matrix(0.05,0,0,0.05,0,0)" xlink:href="#ao"/><use transform="matrix(0.05,0,0,0.05,3.95,0)" xlink:href="#ak"/><use transform="matrix(0.05,0,0,0.05,13.949999999999998,0)" xlink:href="#av"/><use transform="matrix(0.05,0,0,0.05,23.95,0)" xlink:href="#al"/><use transform="matrix(0.05,0,0,0.05,33.95,0)" xlink:href="#aA"/><use transform="matrix(0.05,0,0,0.05,42.95,0)" xlink:href="#ai"/><use transform="matrix(0.05,0,0,0.05,52.95,0)" xlink:href="#ar"/></g><g id="C"><use transform="matrix(0.05,0,0,0.05,0,0)" xlink:href="#ao"/><use transform="matrix(0.05,0,0,0.05,3.95,0)" xlink:href="#ak"/><use transform="matrix(0.05,0,0,0.05,13.949999999999998,0)" xlink:href="#av"/><use transform="matrix(0.05,0,0,0.05,23.95,0)" xlink:href="#aw"/><use transform="matrix(0.05,0,0,0.05,28.950000000000003,0)" xlink:href="#ao"/><use transform="matrix(0.05,0,0,0.05,32.9,0)" xlink:href="#am"/><use transform="matrix(0.05,0,0,0.05,42.9,0)" xlink:href="#ak"/><use transform="matrix(0.05,0,0,0.05,52.900000000000006,0)" xlink:href="#ai"/><use transform="matrix(0.05,0,0,0.05,62.900000000000006,0)" xlink:href="#ar"/></g><g id="D"><use transform="matrix(0.05,0,0,0.05,0,0)" xlink:href="#aw"/><use transform="matrix(0.05,0,0,0.05,5,0)" xlink:href="#al"/><use transform="matrix(0.05,0,0,0.05,15,0)" xlink:href="#am"/><use transform="matrix(0.05,0,0,0.05,25,0)" xlink:href="#ak"/><use transform="matrix(0.05,0,0,0.05,35,0)" xlink:href="#at"/><use transform="matrix(0.05,0,0,0.05,45,0)" xlink:href="#ar"/><use transform="matrix(0.05,0,0,0.05,50.95,0)" xlink:href="#aq"/><use transform="matrix(0.05,0,0,0.05,55.95,0)" xlink:href="#ai"/></g><path fill="#333" d="M67-162c32-53 139-36 121 50C175-51 163 2 97 4 68 4 52-11 42-31 38 6 28 39 22 75H-9l50-265h29c-1 10 0 20-3 28zm89 36c0-26-10-43-35-43-54 0-67 50-69 103-1 29 14 45 42 46 53 0 62-58 62-106" id="aM"/><g id="E"><use transform="matrix(0.05,0,0,0.05,0,0)" xlink:href="#aM"/><use transform="matrix(0.05,0,0,0.05,10,0)" xlink:href="#aj"/><use transform="matrix(0.05,0,0,0.05,13.949999999999998,0)" xlink:href="#aI"/></g><g id="F"><use transform="matrix(0.05,0,0,0.05,0,0)" xlink:href="#at"/><use transform="matrix(0.05,0,0,0.05,10,0)" xlink:href="#ar"/><use transform="matrix(0.05,0,0,0.05,15.949999999999998,0)" xlink:href="#aq"/></g><g id="G"><use transform="matrix(0.05,0,0,0.05,0,0)" xlink:href="#ax"/><use transform="matrix(0.05,0,0,0.05,9,0)" xlink:href="#au"/><use transform="matrix(0.05,0,0,0.05,19,0)" xlink:href="#ar"/><use transform="matrix(0.05,0,0,0.05,24.95,0)" xlink:href="#aB"/><use transform="matrix(0.05,0,0,0.05,33.95,0)" xlink:href="#aC"/><use transform="matrix(0.05,0,0,0.05,43.95,0)" xlink:href="#au"/><use transform="matrix(0.05,0,0,0.05,53.95,0)" xlink:href="#ar"/></g><g id="H"><use transform="matrix(0.05,0,0,0.05,0,0)" xlink:href="#aA"/><use transform="matrix(0.05,0,0,0.05,9,0)" xlink:href="#aq"/><use transform="matrix(0.05,0,0,0.05,14,0)" xlink:href="#ar"/><use transform="matrix(0.05,0,0,0.05,19.95,0)" xlink:href="#au"/><use transform="matrix(0.05,0,0,0.05,29.950000000000003,0)" xlink:href="#aA"/><use transform="matrix(0.05,0,0,0.05,38.95,0)" xlink:href="#aA"/><use transform="matrix(0.05,0,0,0.05,47.95,0)" xlink:href="#ai"/></g><g id="I"><use transform="matrix(0.05,0,0,0.05,0,0)" xlink:href="#ax"/><use transform="matrix(0.05,0,0,0.05,9,0)" xlink:href="#au"/><use transform="matrix(0.05,0,0,0.05,19,0)" xlink:href="#ar"/><use transform="matrix(0.05,0,0,0.05,24.95,0)" xlink:href="#aB"/><use transform="matrix(0.05,0,0,0.05,33.95,0)" xlink:href="#aC"/><use transform="matrix(0.05,0,0,0.05,43.95,0)" xlink:href="#au"/><use transform="matrix(0.05,0,0,0.05,53.95,0)" xlink:href="#ar"/><use transform="matrix(0.05,0,0,0.05,59.900000000000006,0)" xlink:href="#aD"/><use transform="matrix(0.05,0,0,0.05,65.85000000000001,0)" xlink:href="#aK"/><use transform="matrix(0.05,0,0,0.05,75.85000000000001,0)" xlink:href="#aF"/><use transform="matrix(0.05,0,0,0.05,85.85000000000001,0)" xlink:href="#aF"/><use transform="matrix(0.05,0,0,0.05,95.85000000000001,0)" xlink:href="#aG"/></g><path fill="#333" d="M127 0L80-88 50-66 37 0H6l51-261h31L57-100l99-90h39l-93 82L161 0h-34" id="aN"/><g id="J"><use transform="matrix(0.05,0,0,0.05,0,0)" xlink:href="#aN"/><use transform="matrix(0.05,0,0,0.05,9,0)" xlink:href="#ar"/><use transform="matrix(0.05,0,0,0.05,14.949999999999998,0)" xlink:href="#ai"/><use transform="matrix(0.05,0,0,0.05,24.95,0)" xlink:href="#ao"/><use transform="matrix(0.05,0,0,0.05,28.899999999999995,0)" xlink:href="#aA"/></g><g id="K"><use transform="matrix(0.05,0,0,0.05,0,0)" xlink:href="#aj"/><use transform="matrix(0.05,0,0,0.05,3.95,0)" xlink:href="#au"/><use transform="matrix(0.05,0,0,0.05,13.949999999999998,0)" xlink:href="#am"/><use transform="matrix(0.05,0,0,0.05,23.95,0)" xlink:href="#ak"/></g><g id="L"><use transform="matrix(0.05,0,0,0.05,0,0)" xlink:href="#ax"/><use transform="matrix(0.05,0,0,0.05,9,0)" xlink:href="#au"/><use transform="matrix(0.05,0,0,0.05,19,0)" xlink:href="#ar"/><use transform="matrix(0.05,0,0,0.05,24.95,0)" xlink:href="#aB"/><use transform="matrix(0.05,0,0,0.05,33.95,0)" xlink:href="#aC"/><use transform="matrix(0.05,0,0,0.05,43.95,0)" xlink:href="#au"/><use transform="matrix(0.05,0,0,0.05,53.95,0)" xlink:href="#ar"/><use transform="matrix(0.05,0,0,0.05,59.900000000000006,0)" xlink:href="#aD"/><use transform="matrix(0.05,0,0,0.05,65.85000000000001,0)" xlink:href="#aL"/><use transform="matrix(0.05,0,0,0.05,75.85000000000001,0)" xlink:href="#aF"/><use transform="matrix(0.05,0,0,0.05,85.85000000000001,0)" xlink:href="#aG"/></g><g id="M"><use transform="matrix(0.05,0,0,0.05,0,0)" xlink:href="#au"/><use transform="matrix(0.05,0,0,0.05,10,0)" xlink:href="#ah"/><use transform="matrix(0.05,0,0,0.05,24.950000000000003,0)" xlink:href="#aq"/></g><g id="N"><use transform="matrix(0.05,0,0,0.05,0,0)" xlink:href="#ah"/><use transform="matrix(0.05,0,0,0.05,14.950000000000001,0)" xlink:href="#aq"/><use transform="matrix(0.05,0,0,0.05,19.950000000000003,0)" xlink:href="#az"/></g><g id="O"><use transform="matrix(0.05,0,0,0.05,0,0)" xlink:href="#az"/><use transform="matrix(0.05,0,0,0.05,10,0)" xlink:href="#ai"/><use transform="matrix(0.05,0,0,0.05,20,0)" xlink:href="#aA"/><use transform="matrix(0.05,0,0,0.05,29,0)" xlink:href="#aB"/><use transform="matrix(0.05,0,0,0.05,38,0)" xlink:href="#aC"/><use transform="matrix(0.05,0,0,0.05,48,0)" xlink:href="#ar"/><use transform="matrix(0.05,0,0,0.05,53.95,0)" xlink:href="#ai"/><use transform="matrix(0.05,0,0,0.05,63.95,0)" xlink:href="#ao"/><use transform="matrix(0.05,0,0,0.05,67.9,0)" xlink:href="#az"/><use transform="matrix(0.05,0,0,0.05,77.9,0)" xlink:href="#al"/><use transform="matrix(0.05,0,0,0.05,87.9,0)" xlink:href="#am"/><use transform="matrix(0.05,0,0,0.05,97.9,0)" xlink:href="#an"/></g><g id="P"><use transform="matrix(0.05,0,0,0.05,0,0)" xlink:href="#aj"/><use transform="matrix(0.05,0,0,0.05,3.95,0)" xlink:href="#at"/><use transform="matrix(0.05,0,0,0.05,13.949999999999998,0)" xlink:href="#am"/><use transform="matrix(0.05,0,0,0.05,23.95,0)" xlink:href="#an"/><use transform="matrix(0.05,0,0,0.05,33.95,0)" xlink:href="#ao"/><use transform="matrix(0.05,0,0,0.05,37.900000000000006,0)" xlink:href="#aq"/><use transform="matrix(0.05,0,0,0.05,42.900000000000006,0)" xlink:href="#al"/><use transform="matrix(0.05,0,0,0.05,52.900000000000006,0)" xlink:href="#ak"/><use transform="matrix(0.05,0,0,0.05,62.900000000000006,0)" xlink:href="#ai"/></g><path fill="#333" d="M123-251c66 0 92 69 53 113C138-94 73-75 39-27h128l-5 27H-2c17-92 123-93 159-163 14-28-1-64-36-62-29 2-46 17-54 41l-30-6c13-36 37-61 86-61" id="aO"/><g id="Q"><use transform="matrix(0.05,0,0,0.05,0,0)" xlink:href="#ax"/><use transform="matrix(0.05,0,0,0.05,9,0)" xlink:href="#au"/><use transform="matrix(0.05,0,0,0.05,19,0)" xlink:href="#ar"/><use transform="matrix(0.05,0,0,0.05,24.95,0)" xlink:href="#aB"/><use transform="matrix(0.05,0,0,0.05,33.95,0)" xlink:href="#aC"/><use transform="matrix(0.05,0,0,0.05,43.95,0)" xlink:href="#au"/><use transform="matrix(0.05,0,0,0.05,53.95,0)" xlink:href="#ar"/><use transform="matrix(0.05,0,0,0.05,59.900000000000006,0)" xlink:href="#aD"/><use transform="matrix(0.05,0,0,0.05,65.85000000000001,0)" xlink:href="#aO"/><use transform="matrix(0.05,0,0,0.05,75.85000000000001,0)" xlink:href="#aL"/><use transform="matrix(0.05,0,0,0.05,85.85000000000001,0)" xlink:href="#aG"/></g><g id="R"><use transform="matrix(0.05,0,0,0.05,0,0)" xlink:href="#aj"/><use transform="matrix(0.05,0,0,0.05,3.95,0)" xlink:href="#au"/><use transform="matrix(0.05,0,0,0.05,13.949999999999998,0)" xlink:href="#aq"/><use transform="matrix(0.05,0,0,0.05,18.95,0)" xlink:href="#ao"/><use transform="matrix(0.05,0,0,0.05,22.9,0)" xlink:href="#aq"/><use transform="matrix(0.05,0,0,0.05,27.899999999999995,0)" xlink:href="#al"/><use transform="matrix(0.05,0,0,0.05,37.9,0)" xlink:href="#ak"/><use transform="matrix(0.05,0,0,0.05,47.9,0)" xlink:href="#ai"/></g><g id="S"><use transform="matrix(0.05,0,0,0.05,0,0)" xlink:href="#au"/><use transform="matrix(0.05,0,0,0.05,10,0)" xlink:href="#az"/><use transform="matrix(0.05,0,0,0.05,20,0)" xlink:href="#aj"/><use transform="matrix(0.05,0,0,0.05,23.95,0)" xlink:href="#au"/><use transform="matrix(0.05,0,0,0.05,33.95,0)" xlink:href="#an"/><use transform="matrix(0.05,0,0,0.05,43.95,0)" xlink:href="#ai"/></g><g id="T"><use transform="matrix(0.05,0,0,0.05,0,0)" xlink:href="#ax"/><use transform="matrix(0.05,0,0,0.05,9,0)" xlink:href="#au"/><use transform="matrix(0.05,0,0,0.05,19,0)" xlink:href="#ar"/><use transform="matrix(0.05,0,0,0.05,24.95,0)" xlink:href="#aB"/><use transform="matrix(0.05,0,0,0.05,33.95,0)" xlink:href="#aC"/><use transform="matrix(0.05,0,0,0.05,43.95,0)" xlink:href="#au"/><use transform="matrix(0.05,0,0,0.05,53.95,0)" xlink:href="#ar"/><use transform="matrix(0.05,0,0,0.05,59.900000000000006,0)" xlink:href="#aD"/><use transform="matrix(0.05,0,0,0.05,65.85000000000001,0)" xlink:href="#aO"/><use transform="matrix(0.05,0,0,0.05,75.85000000000001,0)" xlink:href="#aL"/><use transform="matrix(0.05,0,0,0.05,85.85000000000001,0)" xlink:href="#aL"/><use transform="matrix(0.05,0,0,0.05,95.85000000000001,0)" xlink:href="#aG"/></g><path fill="#a9afb8" d="M230 0l2-204L168 0h-37L68-204 70 0H24v-248h70l56 185 57-185h69V0h-46" id="aP"/><path fill="#a9afb8" d="M133-34C117-15 103 5 69 4 32 3 11-16 11-54c-1-60 55-63 116-61 1-26-3-47-28-47-18 1-26 9-28 27l-52-2c7-38 36-58 82-57s74 22 75 68l1 82c-1 14 12 18 25 15v27c-30 8-71 5-69-32zm-48 3c29 0 43-24 42-57-32 0-66-3-65 30 0 17 8 27 23 27" id="aQ"/><path fill="#a9afb8" d="M135-194c87-1 58 113 63 194h-50c-7-57 23-157-34-157-59 0-34 97-39 157H25l-1-190h47c2 12-1 28 3 38 12-26 28-41 61-42" id="aR"/><path fill="#a9afb8" d="M115-3C79 11 28 4 28-45v-112H4v-33h27l15-45h31v45h36v33H77v99c-1 23 16 31 38 25v30" id="aS"/><path fill="#a9afb8" d="M25-224v-37h50v37H25zM25 0v-190h50V0H25" id="aT"/><path fill="#a9afb8" d="M137-138c1-29-70-34-71-4 15 46 118 7 119 86 1 83-164 76-172 9l43-7c4 19 20 25 44 25 33 8 57-30 24-41C81-84 22-81 20-136c-2-80 154-74 161-7" id="aU"/><path fill="#a9afb8" d="M14-72v-43h91v43H14" id="aV"/><path fill="#a9afb8" d="M24-248c120-7 223 5 221 122C244-46 201 0 124 0H24v-248zM76-40c74 7 117-18 117-86 0-67-45-88-117-82v168" id="aW"/><path fill="#a9afb8" d="M185-48c-13 30-37 53-82 52C43 2 14-33 14-96s30-98 90-98c62 0 83 45 84 108H66c0 31 8 55 39 56 18 0 30-7 34-22zm-45-69c5-46-57-63-70-21-2 6-4 13-4 21h74" id="aX"/><path fill="#a9afb8" d="M135-194c52 0 70 43 70 98 0 56-19 99-73 100-30 1-46-15-58-35L72 0H24l1-261h50v104c11-23 29-37 60-37zM114-30c31 0 40-27 40-66 0-37-7-63-39-63s-41 28-41 65c0 36 8 64 40 64" id="aY"/><path fill="#a9afb8" d="M147 0L96-86 75-71V0H25v-261h50v150l67-79h53l-66 74L201 0h-54" id="aZ"/><path fill="#a9afb8" d="M169-182c-1-43-94-46-97-3 18 66 151 10 154 114 3 95-165 93-204 36-6-8-10-19-12-30l50-8c3 46 112 56 116 5-17-69-150-10-154-114-4-87 153-88 188-35 5 8 8 18 10 28" id="ba"/><path fill="#a9afb8" d="M135-150c-39-12-60 13-60 57V0H25l-1-190h47c2 13-1 29 3 40 6-28 27-53 61-41v41" id="bb"/><path fill="#a9afb8" d="M85 4C-2 5 27-109 22-190h50c7 57-23 150 33 157 60-5 35-97 40-157h50l1 190h-47c-2-12 1-28-3-38-12 25-28 42-61 42" id="bc"/><g id="U"><use transform="matrix(0.0728395061728395,0,0,0.0728395061728395,0,0)" xlink:href="#aP"/><use transform="matrix(0.0728395061728395,0,0,0.0728395061728395,21.77901234567901,0)" xlink:href="#aQ"/><use transform="matrix(0.0728395061728395,0,0,0.0728395061728395,36.34691358024691,0)" xlink:href="#aR"/><use transform="matrix(0.0728395061728395,0,0,0.0728395061728395,52.29876543209876,0)" xlink:href="#aS"/><use transform="matrix(0.0728395061728395,0,0,0.0728395061728395,60.966666666666654,0)" xlink:href="#aT"/><use transform="matrix(0.0728395061728395,0,0,0.0728395061728395,68.25061728395062,0)" xlink:href="#aU"/><use transform="matrix(0.0728395061728395,0,0,0.0728395061728395,82.81851851851852,0)" xlink:href="#aV"/><use transform="matrix(0.0728395061728395,0,0,0.0728395061728395,91.48641975308642,0)" xlink:href="#aW"/><use transform="matrix(0.0728395061728395,0,0,0.0728395061728395,110.35185185185185,0)" xlink:href="#aQ"/><use transform="matrix(0.0728395061728395,0,0,0.0728395061728395,124.91975308641975,0)" xlink:href="#aS"/><use transform="matrix(0.0728395061728395,0,0,0.0728395061728395,133.58765432098764,0)" xlink:href="#aX"/><use transform="matrix(0.0728395061728395,0,0,0.0728395061728395,148.15555555555554,0)" xlink:href="#aR"/><use transform="matrix(0.0728395061728395,0,0,0.0728395061728395,164.10740740740738,0)" xlink:href="#aY"/><use transform="matrix(0.0728395061728395,0,0,0.0728395061728395,180.05925925925922,0)" xlink:href="#aQ"/><use transform="matrix(0.0728395061728395,0,0,0.0728395061728395,194.62716049382712,0)" xlink:href="#aR"/><use transform="matrix(0.0728395061728395,0,0,0.0728395061728395,210.57901234567896,0)" xlink:href="#aZ"/><use transform="matrix(0.0728395061728395,0,0,0.0728395061728395,225.14691358024683,0)" xlink:href="#aV"/><use transform="matrix(0.0728395061728395,0,0,0.0728395061728395,233.81481481481475,0)" xlink:href="#ba"/><use transform="matrix(0.0728395061728395,0,0,0.0728395061728395,251.29629629629625,0)" xlink:href="#aS"/><use transform="matrix(0.0728395061728395,0,0,0.0728395061728395,259.96419753086417,0)" xlink:href="#bb"/><use transform="matrix(0.0728395061728395,0,0,0.0728395061728395,270.1617283950617,0)" xlink:href="#bc"/><use transform="matrix(0.0728395061728395,0,0,0.0728395061728395,286.11358024691356,0)" xlink:href="#aZ"/><use transform="matrix(0.0728395061728395,0,0,0.0728395061728395,300.68148148148146,0)" xlink:href="#aS"/><use transform="matrix(0.0728395061728395,0,0,0.0728395061728395,309.3493827160494,0)" xlink:href="#bc"/><use transform="matrix(0.0728395061728395,0,0,0.0728395061728395,325.30123456790125,0)" xlink:href="#bb"/></g><g id="V"><use transform="matrix(0.05,0,0,0.05,0,0)" xlink:href="#al"/><use transform="matrix(0.05,0,0,0.05,10,0)" xlink:href="#aA"/><use transform="matrix(0.05,0,0,0.05,19,0)" xlink:href="#ai"/><use transform="matrix(0.05,0,0,0.05,29,0)" xlink:href="#ar"/><use transform="matrix(0.05,0,0,0.05,34.95,0)" xlink:href="#aA"/></g><g id="W"><use transform="matrix(0.05,0,0,0.05,0,0)" xlink:href="#al"/><use transform="matrix(0.05,0,0,0.05,10,0)" xlink:href="#aA"/><use transform="matrix(0.05,0,0,0.05,19,0)" xlink:href="#ai"/><use transform="matrix(0.05,0,0,0.05,29,0)" xlink:href="#ar"/><use transform="matrix(0.05,0,0,0.05,34.95,0)" xlink:href="#av"/><use transform="matrix(0.05,0,0,0.05,44.95,0)" xlink:href="#ao"/><use transform="matrix(0.05,0,0,0.05,48.900000000000006,0)" xlink:href="#ak"/></g><g id="X"><use transform="matrix(0.05,0,0,0.05,0,0)" xlink:href="#al"/><use transform="matrix(0.05,0,0,0.05,10,0)" xlink:href="#aA"/><use transform="matrix(0.05,0,0,0.05,19,0)" xlink:href="#ai"/><use transform="matrix(0.05,0,0,0.05,29,0)" xlink:href="#ar"/><use transform="matrix(0.05,0,0,0.05,34.95,0)" xlink:href="#av"/><use transform="matrix(0.05,0,0,0.05,44.95,0)" xlink:href="#am"/><use transform="matrix(0.05,0,0,0.05,54.95,0)" xlink:href="#au"/><use transform="matrix(0.05,0,0,0.05,64.95,0)" xlink:href="#ah"/><use transform="matrix(0.05,0,0,0.05,79.9,0)" xlink:href="#ai"/></g><g id="Y"><use transform="matrix(0.05,0,0,0.05,0,0)" xlink:href="#ax"/><use transform="matrix(0.05,0,0,0.05,9,0)" xlink:href="#au"/><use transform="matrix(0.05,0,0,0.05,19,0)" xlink:href="#ar"/><use transform="matrix(0.05,0,0,0.05,24.95,0)" xlink:href="#aB"/><use transform="matrix(0.05,0,0,0.05,33.95,0)" xlink:href="#aC"/><use transform="matrix(0.05,0,0,0.05,43.95,0)" xlink:href="#au"/><use transform="matrix(0.05,0,0,0.05,53.95,0)" xlink:href="#ar"/><use transform="matrix(0.05,0,0,0.05,59.900000000000006,0)" xlink:href="#aD"/><use transform="matrix(0.05,0,0,0.05,65.85000000000001,0)" xlink:href="#aE"/><use transform="matrix(0.05,0,0,0.05,75.85000000000001,0)" xlink:href="#aL"/><use transform="matrix(0.05,0,0,0.05,85.85000000000001,0)" xlink:href="#aG"/></g><g id="Z"><use transform="matrix(0.05,0,0,0.05,0,0)" xlink:href="#al"/><use transform="matrix(0.05,0,0,0.05,10,0)" xlink:href="#aA"/><use transform="matrix(0.05,0,0,0.05,19,0)" xlink:href="#ai"/><use transform="matrix(0.05,0,0,0.05,29,0)" xlink:href="#ar"/><use transform="matrix(0.05,0,0,0.05,34.95,0)" xlink:href="#av"/><use transform="matrix(0.05,0,0,0.05,44.95,0)" xlink:href="#ar"/><use transform="matrix(0.05,0,0,0.05,50.900000000000006,0)" xlink:href="#at"/><use transform="matrix(0.05,0,0,0.05,60.900000000000006,0)" xlink:href="#aj"/><use transform="matrix(0.05,0,0,0.05,64.85000000000001,0)" xlink:href="#aj"/><use transform="matrix(0.05,0,0,0.05,68.80000000000001,0)" xlink:href="#ai"/></g><g id="aa"><use transform="matrix(0.05,0,0,0.05,0,0)" xlink:href="#al"/><use transform="matrix(0.05,0,0,0.05,10,0)" xlink:href="#aA"/><use transform="matrix(0.05,0,0,0.05,19,0)" xlink:href="#ai"/><use transform="matrix(0.05,0,0,0.05,29,0)" xlink:href="#ar"/><use transform="matrix(0.05,0,0,0.05,34.95,0)" xlink:href="#av"/><use transform="matrix(0.05,0,0,0.05,44.95,0)" xlink:href="#aN"/><use transform="matrix(0.05,0,0,0.05,53.95,0)" xlink:href="#at"/><use transform="matrix(0.05,0,0,0.05,63.95,0)" xlink:href="#am"/><use transform="matrix(0.05,0,0,0.05,73.95,0)" xlink:href="#aq"/><use transform="matrix(0.05,0,0,0.05,78.95,0)" xlink:href="#au"/><use transform="matrix(0.05,0,0,0.05,88.95,0)" xlink:href="#aN"/><use transform="matrix(0.05,0,0,0.05,97.95,0)" xlink:href="#aq"/></g><g id="ab"><use transform="matrix(0.05,0,0,0.05,0,0)" xlink:href="#az"/><use transform="matrix(0.05,0,0,0.05,10,0)" xlink:href="#ai"/><use transform="matrix(0.05,0,0,0.05,20,0)" xlink:href="#aA"/><use transform="matrix(0.05,0,0,0.05,29,0)" xlink:href="#aB"/><use transform="matrix(0.05,0,0,0.05,38,0)" xlink:href="#aC"/><use transform="matrix(0.05,0,0,0.05,48,0)" xlink:href="#ar"/><use transform="matrix(0.05,0,0,0.05,53.95,0)" xlink:href="#ai"/><use transform="matrix(0.05,0,0,0.05,63.95,0)" xlink:href="#ao"/><use transform="matrix(0.05,0,0,0.05,67.9,0)" xlink:href="#az"/><use transform="matrix(0.05,0,0,0.05,77.9,0)" xlink:href="#al"/><use transform="matrix(0.05,0,0,0.05,87.9,0)" xlink:href="#am"/><use transform="matrix(0.05,0,0,0.05,97.9,0)" xlink:href="#an"/></g><g id="ac"><use transform="matrix(0.05,0,0,0.05,0,0)" xlink:href="#au"/><use transform="matrix(0.05,0,0,0.05,10,0)" xlink:href="#ai"/><use transform="matrix(0.05,0,0,0.05,20,0)" xlink:href="#ah"/><use transform="matrix(0.05,0,0,0.05,34.95,0)" xlink:href="#aq"/><use transform="matrix(0.05,0,0,0.05,39.95,0)" xlink:href="#ai"/><use transform="matrix(0.05,0,0,0.05,49.95,0)" xlink:href="#ar"/></g><g id="ad"><use transform="matrix(0.05,0,0,0.05,0,0)" xlink:href="#au"/><use transform="matrix(0.05,0,0,0.05,10,0)" xlink:href="#an"/><use transform="matrix(0.05,0,0,0.05,20,0)" xlink:href="#aA"/></g><g id="ae"><use transform="matrix(0.05,0,0,0.05,0,0)" xlink:href="#an"/><use transform="matrix(0.05,0,0,0.05,10,0)" xlink:href="#ai"/><use transform="matrix(0.05,0,0,0.05,20,0)" xlink:href="#am"/></g><g id="af"><use transform="matrix(0.05,0,0,0.05,0,0)" xlink:href="#aM"/><use transform="matrix(0.05,0,0,0.05,10,0)" xlink:href="#ar"/><use transform="matrix(0.05,0,0,0.05,15.949999999999998,0)" xlink:href="#at"/><use transform="matrix(0.05,0,0,0.05,25.950000000000003,0)" xlink:href="#aM"/><use transform="matrix(0.05,0,0,0.05,35.95,0)" xlink:href="#ai"/><use transform="matrix(0.05,0,0,0.05,45.95,0)" xlink:href="#ar"/><use transform="matrix(0.05,0,0,0.05,51.900000000000006,0)" xlink:href="#aq"/><use transform="matrix(0.05,0,0,0.05,56.900000000000006,0)" xlink:href="#ao"/><use transform="matrix(0.05,0,0,0.05,60.85,0)" xlink:href="#ai"/><use transform="matrix(0.05,0,0,0.05,70.85000000000001,0)" xlink:href="#aA"/></g><path fill="#333" d="M51-231l6-30h31l-6 30H51zM33 24C28 60 2 84-40 72c3-12-1-29 18-22C-5 49-1 37 2 19l41-209h32" id="bd"/><g id="ag"><use transform="matrix(0.05,0,0,0.05,0,0)" xlink:href="#bd"/><use transform="matrix(0.05,0,0,0.05,3.95,0)" xlink:href="#aA"/><use transform="matrix(0.05,0,0,0.05,12.949999999999998,0)" xlink:href="#at"/><use transform="matrix(0.05,0,0,0.05,22.95,0)" xlink:href="#am"/><use transform="matrix(0.05,0,0,0.05,32.95,0)" xlink:href="#az"/></g></defs></g></svg>